<svg xmlns="http://www.w3.org/2000/svg" version="1.1" xmlns:xlink="http://www.w3.org/1999/xlink" xmlns:svgjs="http://svgjs.com/svgjs" width="1440" height="560" preserveAspectRatio="none" viewBox="0 0 1440 560"><g mask="url(&quot;#SvgjsMask2176&quot;)" fill="none"><rect width="1440" height="560" x="0" y="0" fill="url(#SvgjsLinearGradient2177)"></rect><path d="M277.35 105.14L365.69 156.14L365.69 258.14L277.35 309.14L189.01 258.14L189.01 156.14zM365.69 -47.86L454.03 3.14L454.03 105.14L365.69 156.14L277.35 105.14L277.35 3.14zM542.36 -47.86L630.7 3.14L630.7 105.14L542.36 156.14L454.03 105.14L454.03 3.14zM542.36 258.14L630.7 309.14L630.7 411.14L542.36 462.14L454.03 411.14L454.03 309.14zM807.37 105.14L895.71 156.14L895.71 258.14L807.37 309.14L719.04 258.14L719.04 156.14zM719.04 564.14L807.37 615.14L807.37 717.14L719.04 768.14L630.7 717.14L630.7 615.14zM895.71 258.14L984.05 309.14L984.05 411.14L895.71 462.14L807.37 411.14L807.37 309.14zM984.05 411.14L1072.39 462.14L1072.39 564.14L984.05 615.14L895.71 564.14L895.71 462.14zM895.71 564.14L984.05 615.14L984.05 717.14L895.71 768.14L807.37 717.14L807.37 615.14zM1072.39 -47.86L1160.72 3.14L1160.72 105.14L1072.39 156.14L984.05 105.14L984.05 3.14zM1337.4 411.14L1425.73 462.14L1425.73 564.14L1337.4 615.14L1249.06 564.14L1249.06 462.14zM1249.06 564.14L1337.4 615.14L1337.4 717.14L1249.06 768.14L1160.72 717.14L1160.72 615.14zM1514.07 105.14L1602.41 156.14L1602.41 258.14L1514.07 309.14L1425.73 258.14L1425.73 156.14z" stroke="rgba(27, 122, 182, 1)" stroke-width="2"></path><path d="M267.15 105.14 a10.2 10.2 0 1 0 20.4 0 a10.2 10.2 0 1 0 -20.4 0zM355.49 156.14 a10.2 10.2 0 1 0 20.4 0 a10.2 10.2 0 1 0 -20.4 0zM355.49 258.14 a10.2 10.2 0 1 0 20.4 0 a10.2 10.2 0 1 0 -20.4 0zM267.15 309.14 a10.2 10.2 0 1 0 20.4 0 a10.2 10.2 0 1 0 -20.4 0zM178.81 258.14 a10.2 10.2 0 1 0 20.4 0 a10.2 10.2 0 1 0 -20.4 0zM178.81 156.14 a10.2 10.2 0 1 0 20.4 0 a10.2 10.2 0 1 0 -20.4 0zM355.49 -47.86 a10.2 10.2 0 1 0 20.4 0 a10.2 10.2 0 1 0 -20.4 0zM443.83 3.14 a10.2 10.2 0 1 0 20.4 0 a10.2 10.2 0 1 0 -20.4 0zM443.83 105.14 a10.2 10.2 0 1 0 20.4 0 a10.2 10.2 0 1 0 -20.4 0zM267.15 3.14 a10.2 10.2 0 1 0 20.4 0 a10.2 10.2 0 1 0 -20.4 0zM532.16 -47.86 a10.2 10.2 0 1 0 20.4 0 a10.2 10.2 0 1 0 -20.4 0zM620.5 3.14 a10.2 10.2 0 1 0 20.4 0 a10.2 10.2 0 1 0 -20.4 0zM620.5 105.14 a10.2 10.2 0 1 0 20.4 0 a10.2 10.2 0 1 0 -20.4 0zM532.16 156.14 a10.2 10.2 0 1 0 20.4 0 a10.2 10.2 0 1 0 -20.4 0zM532.16 258.14 a10.2 10.2 0 1 0 20.4 0 a10.2 10.2 0 1 0 -20.4 0zM620.5 309.14 a10.2 10.2 0 1 0 20.4 0 a10.2 10.2 0 1 0 -20.4 0zM620.5 411.14 a10.2 10.2 0 1 0 20.4 0 a10.2 10.2 0 1 0 -20.4 0zM532.16 462.14 a10.2 10.2 0 1 0 20.4 0 a10.2 10.2 0 1 0 -20.4 0zM443.83 411.14 a10.2 10.2 0 1 0 20.4 0 a10.2 10.2 0 1 0 -20.4 0zM443.83 309.14 a10.2 10.2 0 1 0 20.4 0 a10.2 10.2 0 1 0 -20.4 0zM797.17 105.14 a10.2 10.2 0 1 0 20.4 0 a10.2 10.2 0 1 0 -20.4 0zM885.51 156.14 a10.2 10.2 0 1 0 20.4 0 a10.2 10.2 0 1 0 -20.4 0zM885.51 258.14 a10.2 10.2 0 1 0 20.4 0 a10.2 10.2 0 1 0 -20.4 0zM797.17 309.14 a10.2 10.2 0 1 0 20.4 0 a10.2 10.2 0 1 0 -20.4 0zM708.84 258.14 a10.2 10.2 0 1 0 20.4 0 a10.2 10.2 0 1 0 -20.4 0zM708.84 156.14 a10.2 10.2 0 1 0 20.4 0 a10.2 10.2 0 1 0 -20.4 0zM708.84 564.14 a10.2 10.2 0 1 0 20.4 0 a10.2 10.2 0 1 0 -20.4 0zM797.17 615.14 a10.2 10.2 0 1 0 20.4 0 a10.2 10.2 0 1 0 -20.4 0zM797.17 717.14 a10.2 10.2 0 1 0 20.4 0 a10.2 10.2 0 1 0 -20.4 0zM708.84 768.14 a10.2 10.2 0 1 0 20.4 0 a10.2 10.2 0 1 0 -20.4 0zM620.5 717.14 a10.2 10.2 0 1 0 20.4 0 a10.2 10.2 0 1 0 -20.4 0zM620.5 615.14 a10.2 10.2 0 1 0 20.4 0 a10.2 10.2 0 1 0 -20.4 0zM973.85 309.14 a10.2 10.2 0 1 0 20.4 0 a10.2 10.2 0 1 0 -20.4 0zM973.85 411.14 a10.2 10.2 0 1 0 20.4 0 a10.2 10.2 0 1 0 -20.4 0zM885.51 462.14 a10.2 10.2 0 1 0 20.4 0 a10.2 10.2 0 1 0 -20.4 0zM797.17 411.14 a10.2 10.2 0 1 0 20.4 0 a10.2 10.2 0 1 0 -20.4 0zM1062.19 462.14 a10.2 10.2 0 1 0 20.4 0 a10.2 10.2 0 1 0 -20.4 0zM1062.19 564.14 a10.2 10.2 0 1 0 20.4 0 a10.2 10.2 0 1 0 -20.4 0zM973.85 615.14 a10.2 10.2 0 1 0 20.4 0 a10.2 10.2 0 1 0 -20.4 0zM885.51 564.14 a10.2 10.2 0 1 0 20.4 0 a10.2 10.2 0 1 0 -20.4 0zM973.85 717.14 a10.2 10.2 0 1 0 20.4 0 a10.2 10.2 0 1 0 -20.4 0zM885.51 768.14 a10.2 10.2 0 1 0 20.4 0 a10.2 10.2 0 1 0 -20.4 0zM1062.19 -47.86 a10.2 10.2 0 1 0 20.4 0 a10.2 10.2 0 1 0 -20.4 0zM1150.52 3.14 a10.2 10.2 0 1 0 20.4 0 a10.2 10.2 0 1 0 -20.4 0zM1150.52 105.14 a10.2 10.2 0 1 0 20.4 0 a10.2 10.2 0 1 0 -20.4 0zM1062.19 156.14 a10.2 10.2 0 1 0 20.4 0 a10.2 10.2 0 1 0 -20.4 0zM973.85 105.14 a10.2 10.2 0 1 0 20.4 0 a10.2 10.2 0 1 0 -20.4 0zM973.85 3.14 a10.2 10.2 0 1 0 20.4 0 a10.2 10.2 0 1 0 -20.4 0zM1327.2 411.14 a10.2 10.2 0 1 0 20.4 0 a10.2 10.2 0 1 0 -20.4 0zM1415.53 462.14 a10.2 10.2 0 1 0 20.4 0 a10.2 10.2 0 1 0 -20.4 0zM1415.53 564.14 a10.2 10.2 0 1 0 20.4 0 a10.2 10.2 0 1 0 -20.4 0zM1327.2 615.14 a10.2 10.2 0 1 0 20.4 0 a10.2 10.2 0 1 0 -20.4 0zM1238.86 564.14 a10.2 10.2 0 1 0 20.4 0 a10.2 10.2 0 1 0 -20.4 0zM1238.86 462.14 a10.2 10.2 0 1 0 20.4 0 a10.2 10.2 0 1 0 -20.4 0zM1327.2 717.14 a10.2 10.2 0 1 0 20.4 0 a10.2 10.2 0 1 0 -20.4 0zM1238.86 768.14 a10.2 10.2 0 1 0 20.4 0 a10.2 10.2 0 1 0 -20.4 0zM1150.52 717.14 a10.2 10.2 0 1 0 20.4 0 a10.2 10.2 0 1 0 -20.4 0zM1150.52 615.14 a10.2 10.2 0 1 0 20.4 0 a10.2 10.2 0 1 0 -20.4 0zM1503.87 105.14 a10.2 10.2 0 1 0 20.4 0 a10.2 10.2 0 1 0 -20.4 0zM1592.21 156.14 a10.2 10.2 0 1 0 20.4 0 a10.2 10.2 0 1 0 -20.4 0zM1592.21 258.14 a10.2 10.2 0 1 0 20.4 0 a10.2 10.2 0 1 0 -20.4 0zM1503.87 309.14 a10.2 10.2 0 1 0 20.4 0 a10.2 10.2 0 1 0 -20.4 0zM1415.53 258.14 a10.2 10.2 0 1 0 20.4 0 a10.2 10.2 0 1 0 -20.4 0zM1415.53 156.14 a10.2 10.2 0 1 0 20.4 0 a10.2 10.2 0 1 0 -20.4 0z" fill="rgba(27, 122, 182, 1)"></path><path d="M112.31 101.81L204.97 155.31L204.97 262.31L112.31 315.81L19.64 262.31L19.64 155.31zM297.64 422.81L390.31 476.31L390.31 583.31L297.64 636.81L204.97 583.31L204.97 476.31zM482.98 101.81L575.64 155.31L575.64 262.31L482.98 315.81L390.31 262.31L390.31 155.31zM482.98 422.81L575.64 476.31L575.64 583.31L482.98 636.81L390.31 583.31L390.31 476.31zM1316.98 -58.69L1409.65 -5.19L1409.65 101.81L1316.98 155.31L1224.32 101.81L1224.32 -5.19zM1409.65 422.81L1502.32 476.31L1502.32 583.31L1409.65 636.81L1316.98 583.31L1316.98 476.31z" stroke="url(#SvgjsLinearGradient2178)" stroke-width="2"></path></g><defs><mask id="SvgjsMask2176"><rect width="1440" height="560" fill="#ffffff"></rect></mask><linearGradient x1="100%" y1="50%" x2="0%" y2="50%" gradientUnits="userSpaceOnUse" id="SvgjsLinearGradient2177"><stop stop-color="#0e2a47" offset="0"></stop><stop stop-color="rgba(0, 72, 164, 1)" offset="1"></stop></linearGradient><linearGradient x1="0" y1="280" x2="1440" y2="280" gradientUnits="userSpaceOnUse" id="SvgjsLinearGradient2178"><stop stop-color="#0e2a47" offset="0"></stop><stop stop-color="rgba(22, 42, 68, 1)" offset="1"></stop></linearGradient></defs></svg>